<?xml version="1.0" encoding="UTF-8"?>
<svg id="Layer_2" data-name="Layer 2" xmlns="http://www.w3.org/2000/svg" viewBox="0 0 1214 193.8">
  <defs>
    <style>
      .cls-1 {
        opacity: .13;
      }

      .cls-1, .cls-2, .cls-3, .cls-4, .cls-5, .cls-6, .cls-7, .cls-8, .cls-9, .cls-10, .cls-11, .cls-12, .cls-13, .cls-14, .cls-15, .cls-16, .cls-17, .cls-18, .cls-19, .cls-20, .cls-21 {
        stroke-width: 0px;
      }

      .cls-1, .cls-2, .cls-3, .cls-4, .cls-5, .cls-7, .cls-8, .cls-9, .cls-10, .cls-11, .cls-12, .cls-13, .cls-14, .cls-15, .cls-16, .cls-17, .cls-18, .cls-19, .cls-20, .cls-21 {
        fill: #fff;
      }

      .cls-2 {
        opacity: .07;
      }

      .cls-3 {
        opacity: .42;
      }

      .cls-4 {
        opacity: .18;
      }

      .cls-5 {
        opacity: .26;
      }

      .cls-6 {
        fill: #fc3;
      }

      .cls-7 {
        opacity: .46;
      }

      .cls-8 {
        opacity: .06;
      }

      .cls-9 {
        opacity: .36;
      }

      .cls-10 {
        opacity: .29;
      }

      .cls-11 {
        opacity: .83;
      }

      .cls-12 {
        opacity: .22;
      }

      .cls-13 {
        opacity: .28;
      }

      .cls-14, .cls-22 {
        opacity: .25;
      }

      .cls-16 {
        opacity: .32;
      }

      .cls-17 {
        opacity: .17;
      }

      .cls-18 {
        opacity: .39;
      }

      .cls-19 {
        opacity: .5;
      }

      .cls-20 {
        opacity: .53;
      }

      .cls-23 {
        opacity: .3;
      }

      .cls-21 {
        opacity: .21;
      }
    </style>
  </defs>
  <g id="Layer_1-2" data-name="Layer 1">
    <g>
      <polygon class="cls-2" points="474.67 56.8 481.59 71.03 497.26 73.21 485.86 84.19 488.63 99.77 474.67 92.32 460.7 99.77 463.47 84.19 452.08 73.21 467.75 71.03 474.67 56.8"/>
      <polygon class="cls-12" points="1141.32 170.29 1143.43 174.63 1148.21 175.29 1144.74 178.64 1145.58 183.39 1141.32 181.12 1137.07 183.39 1137.91 178.64 1134.44 175.29 1139.21 174.63 1141.32 170.29"/>
      <polygon class="cls-12" points="119.42 122.51 121.08 125.91 124.83 126.44 122.1 129.07 122.76 132.8 119.42 131.01 116.07 132.8 116.74 129.07 114.01 126.44 117.76 125.91 119.42 122.51"/>
      <polygon class="cls-12" points="612.42 35.8 610.74 39.26 606.94 39.79 609.7 42.45 609.03 46.24 612.42 44.43 615.82 46.24 615.15 42.45 617.91 39.79 614.11 39.26 612.42 35.8"/>
      <polygon class="cls-8" points="639.73 80.28 637.17 85.55 631.37 86.35 635.59 90.42 634.57 96.19 639.73 93.43 644.9 96.19 643.88 90.42 648.1 86.35 642.3 85.55 639.73 80.28"/>
      <polygon class="cls-12" points="936.39 74.29 934.28 78.63 929.5 79.29 932.97 82.64 932.13 87.39 936.39 85.12 940.64 87.39 939.8 82.64 943.27 79.29 938.5 78.63 936.39 74.29"/>
      <polygon class="cls-12" points="307.29 160.51 305.64 163.91 301.88 164.44 304.61 167.07 303.95 170.8 307.29 169.01 310.64 170.8 309.98 167.07 312.7 164.44 308.95 163.91 307.29 160.51"/>
      <path class="cls-6" d="M423.93,133.84l2.67,8.21h8.63c.24,0,.34.31.15.45l-6.98,5.07,2.67,8.21c.08.23-.19.42-.39.28l-6.98-5.07-6.98,5.07c-.2.14-.46-.05-.39-.28l2.67-8.21-6.98-5.07c-.2-.14-.1-.45.15-.45h8.63l2.67-8.21c.08-.23.4-.23.48,0Z"/>
      <path class="cls-6" d="M221.09,159.31l1.46,4.49h4.72c.1,0,.15.13.06.19l-3.82,2.78,1.46,4.49c.03.1-.08.18-.17.12l-3.82-2.78-3.82,2.78c-.08.06-.2-.02-.17-.12l1.46-4.49-3.82-2.78c-.08-.06-.04-.19.06-.19h4.72l1.46-4.49c.03-.1.17-.1.2,0Z"/>
      <path class="cls-6" d="M45.09,128.3l1.01,3.11h3.27c.1,0,.15.13.06.19l-2.65,1.92,1.01,3.11c.03.1-.08.18-.17.12l-2.65-1.92-2.65,1.92c-.08.06-.2-.02-.17-.12l1.01-3.11-2.65-1.92c-.08-.06-.04-.19.06-.19h3.27l1.01-3.11c.03-.1.17-.1.2,0Z"/>
      <path class="cls-6" d="M219.93,39.15l3.13,9.64h10.14c.25,0,.35.32.15.47l-8.2,5.96,3.13,9.64c.08.24-.19.43-.4.29l-8.2-5.96-8.2,5.96c-.2.15-.47-.05-.4-.29l3.13-9.64-8.2-5.96c-.2-.15-.1-.47.15-.47h10.14l3.13-9.64c.08-.24.41-.24.49,0Z"/>
      <path class="cls-6" d="M543.93.18l1.43,4.41h4.64c.25,0,.35.32.15.47l-3.75,2.72,1.43,4.41c.08.24-.19.43-.4.29l-3.75-2.72-3.75,2.72c-.2.15-.47-.05-.4-.29l1.43-4.41-3.75-2.72c-.2-.15-.1-.47.15-.47h4.64l1.43-4.41c.08-.24.41-.24.49,0Z"/>
      <path class="cls-6" d="M1047.93,38.97l2.43,7.47h7.85c.25,0,.35.32.15.47l-6.35,4.61,2.43,7.47c.08.24-.19.43-.4.29l-6.35-4.61-6.35,4.61c-.2.15-.47-.05-.4-.29l2.43-7.47-6.35-4.61c-.2-.15-.1-.47.15-.47h7.85l2.43-7.47c.08-.24.41-.24.49,0Z"/>
      <g class="cls-22">
        <circle class="cls-15" cx="698" cy="55.8" r="6"/>
      </g>
      <g class="cls-22">
        <circle class="cls-15" cx="844" cy="123.8" r="4"/>
      </g>
      <g class="cls-23">
        <circle class="cls-15" cx="714" cy="163.8" r="2"/>
      </g>
      <circle class="cls-3" cx="1.5" cy="148.3" r="1.5"/>
      <circle class="cls-5" cx="130" cy="187.8" r="5"/>
      <circle class="cls-4" cx="187" cy="110.8" r="7"/>
      <circle class="cls-4" cx="234" cy="123.8" r="2"/>
      <circle class="cls-4" cx="1210.5" cy="162.3" r="3.5"/>
      <circle class="cls-10" cx="1116.5" cy="124.3" r="6.5"/>
      <circle class="cls-7" cx="1120" cy="66.8" r="1"/>
      <circle class="cls-14" cx="1035" cy="97.8" r="2"/>
      <circle class="cls-9" cx="945" cy="191.8" r="2"/>
      <circle class="cls-21" cx="498.5" cy="151.3" r="5.5"/>
      <circle class="cls-1" cx="556.5" cy="151.3" r="2.5"/>
      <circle class="cls-17" cx="439" cy="52.8" r="3"/>
      <circle class="cls-20" cx="517.5" cy="57.3" r="1.5"/>
      <circle class="cls-12" cx="481" cy="23.8" r="1"/>
      <circle class="cls-4" cx="909.5" cy="42.3" r="2.5"/>
      <circle class="cls-18" cx="855.5" cy="7.3" r="1.5"/>
      <circle class="cls-11" cx="157" cy="88.8" r="1"/>
      <circle class="cls-16" cx="96.5" cy="103.3" r="2.5"/>
      <circle class="cls-13" cx="315.5" cy="56.3" r="8.5"/>
      <circle class="cls-19" cx="709" cy="18.8" r="1"/>
      <circle class="cls-14" cx="779.5" cy="29.3" r="1.5"/>
      <polygon class="cls-6" points="1028.7 154.8 1030.01 156.12 1031.62 155.18 1032.55 156.8 1034.35 156.31 1034.83 158.11 1036.69 158.11 1036.68 159.97 1038.49 160.45 1038 162.25 1039.61 163.18 1038.68 164.79 1040 166.1 1038.68 167.42 1039.61 169.03 1038 169.95 1038.49 171.75 1036.68 172.23 1036.69 174.09 1034.83 174.09 1034.35 175.89 1032.55 175.4 1031.62 177.02 1030.01 176.08 1028.7 177.41 1027.38 176.08 1025.77 177.02 1024.84 175.4 1023.04 175.89 1022.57 174.09 1020.7 174.09 1020.71 172.23 1018.91 171.75 1019.39 169.95 1017.78 169.03 1018.71 167.42 1017.39 166.1 1018.71 164.79 1017.78 163.18 1019.39 162.25 1018.91 160.45 1020.71 159.97 1020.7 158.11 1022.57 158.11 1023.04 156.31 1024.84 156.8 1025.77 155.18 1027.38 156.12 1028.7 154.8"/>
    </g>
  </g>
</svg>