<?xml version="1.0" encoding="utf-8"?>
<!-- Generator: Adobe Illustrator 28.3.0, SVG Export Plug-In . SVG Version: 6.00 Build 0)  -->
<svg version="1.1" id="Layer_2_00000121981063783696867890000000654306168025235878_"
	 xmlns="http://www.w3.org/2000/svg" xmlns:xlink="http://www.w3.org/1999/xlink" x="0px" y="0px" viewBox="0 0 1214 193.8"
	 style="enable-background:new 0 0 1214 193.8;" xml:space="preserve">
<style type="text/css">
	.st0{opacity:7.000000e-02;fill:#FFFFFF;enable-background:new    ;}
	.st1{opacity:0.22;fill:#FFFFFF;enable-background:new    ;}
	.st2{opacity:6.000000e-02;fill:#FFFFFF;enable-background:new    ;}
	.st3{fill:#FFCC33;}
	.st4{opacity:0.56;fill:#FFCC33;enable-background:new    ;}
	.st5{opacity:0.78;fill:#FFCC33;enable-background:new    ;}
	.st6{opacity:0.25;}
	.st7{fill:#FFFFFF;}
	.st8{opacity:0.3;}
	.st9{opacity:0.42;fill:#FFFFFF;enable-background:new    ;}
	.st10{opacity:0.26;fill:#FFFFFF;enable-background:new    ;}
	.st11{opacity:0.18;fill:#FFFFFF;enable-background:new    ;}
	.st12{opacity:0.29;fill:#FFFFFF;enable-background:new    ;}
	.st13{opacity:0.46;fill:#FFFFFF;enable-background:new    ;}
	.st14{opacity:0.25;fill:#FFFFFF;enable-background:new    ;}
	.st15{opacity:0.36;fill:#FFFFFF;enable-background:new    ;}
	.st16{opacity:0.21;fill:#FFFFFF;enable-background:new    ;}
	.st17{opacity:0.13;fill:#FFFFFF;enable-background:new    ;}
	.st18{opacity:0.17;fill:#FFFFFF;enable-background:new    ;}
	.st19{opacity:0.53;fill:#FFFFFF;enable-background:new    ;}
	.st20{opacity:0.39;fill:#FFFFFF;enable-background:new    ;}
	.st21{opacity:0.83;fill:#FFFFFF;enable-background:new    ;}
	.st22{opacity:0.32;fill:#FFFFFF;enable-background:new    ;}
	.st23{opacity:0.28;fill:#FFFFFF;enable-background:new    ;}
	.st24{opacity:0.5;fill:#FFFFFF;enable-background:new    ;}
</style>
<g id="Layer_1-2">
	<g>
		<polygon class="st0" points="474.7,56.8 481.6,71 497.3,73.2 485.9,84.2 488.6,99.8 474.7,92.3 460.7,99.8 463.5,84.2 452.1,73.2 
			467.8,71 		"/>
		<polygon class="st1" points="1141.3,170.3 1143.4,174.6 1148.2,175.3 1144.7,178.6 1145.6,183.4 1141.3,181.1 1137.1,183.4 
			1137.9,178.6 1134.4,175.3 1139.2,174.6 		"/>
		<polygon class="st1" points="119.4,122.5 121.1,125.9 124.8,126.4 122.1,129.1 122.8,132.8 119.4,131 116.1,132.8 116.7,129.1 
			114,126.4 117.8,125.9 		"/>
		<polygon class="st1" points="612.4,35.8 610.7,39.3 606.9,39.8 609.7,42.5 609,46.2 612.4,44.4 615.8,46.2 615.2,42.5 617.9,39.8 
			614.1,39.3 		"/>
		<polygon class="st2" points="639.7,80.3 637.2,85.6 631.4,86.3 635.6,90.4 634.6,96.2 639.7,93.4 644.9,96.2 643.9,90.4 
			648.1,86.3 642.3,85.6 		"/>
		<polygon class="st1" points="936.4,74.3 934.3,78.6 929.5,79.3 933,82.6 932.1,87.4 936.4,85.1 940.6,87.4 939.8,82.6 943.3,79.3 
			938.5,78.6 		"/>
		<polygon class="st1" points="307.3,160.5 305.6,163.9 301.9,164.4 304.6,167.1 304,170.8 307.3,169 310.6,170.8 310,167.1 
			312.7,164.4 309,163.9 		"/>
		<path class="st3" d="M456.9,110.8l2.7,8.2h8.6c0.2,0,0.3,0.3,0.1,0.4l-7,5.1l2.7,8.2c0.1,0.2-0.2,0.4-0.4,0.3l-7-5.1l-7,5.1
			c-0.2,0.1-0.5-0.1-0.4-0.3l2.7-8.2l-7-5.1c-0.2-0.1-0.1-0.4,0.1-0.4h8.6l2.7-8.2C456.5,110.6,456.9,110.6,456.9,110.8L456.9,110.8
			z"/>
		<path class="st3" d="M221.1,159.3l1.5,4.5h4.7c0.1,0,0.1,0.1,0.1,0.2l-3.8,2.8l1.5,4.5c0,0.1-0.1,0.2-0.2,0.1l-3.8-2.8l-3.8,2.8
			c-0.1,0.1-0.2,0-0.2-0.1l1.5-4.5l-3.8-2.8c-0.1-0.1,0-0.2,0.1-0.2h4.7l1.5-4.5C220.9,159.2,221,159.2,221.1,159.3L221.1,159.3z"/>
		<path class="st3" d="M45.1,128.3l1,3.1h3.3c0.1,0,0.2,0.1,0.1,0.2l-2.7,1.9l1,3.1c0,0.1-0.1,0.2-0.2,0.1l-2.7-1.9l-2.7,1.9
			c-0.1,0.1-0.2,0-0.2-0.1l1-3.1l-2.7-1.9c-0.1-0.1,0-0.2,0.1-0.2h3.3l1-3.1C44.9,128.2,45,128.2,45.1,128.3L45.1,128.3z"/>
		<path class="st3" d="M607.2,61.4l3.1,9.6h10.1c0.2,0,0.4,0.3,0.2,0.5l-8.2,6l3.1,9.6c0.1,0.2-0.2,0.4-0.4,0.3l-8.2-6l-8.2,6
			c-0.2,0.2-0.5-0.1-0.4-0.3l3.1-9.6l-8.2-6c-0.2-0.2-0.1-0.5,0.1-0.5h10.1l3.1-9.6C606.8,61.1,607.2,61.1,607.2,61.4L607.2,61.4z"
			/>
		<path class="st4" d="M543.9,0.2l1.4,4.4h4.6c0.2,0,0.3,0.3,0.2,0.5l-3.8,2.7l1.4,4.4c0.1,0.2-0.2,0.4-0.4,0.3l-3.8-2.7l-3.8,2.7
			c-0.2,0.1-0.5-0.1-0.4-0.3l1.4-4.4l-3.8-2.7c-0.2-0.2-0.1-0.5,0.2-0.5h4.6l1.4-4.4C543.5-0.1,543.8-0.1,543.9,0.2L543.9,0.2z"/>
		<path class="st5" d="M1047.9,39l2.4,7.5h7.8c0.2,0,0.3,0.3,0.2,0.5l-6.3,4.6l2.4,7.5c0.1,0.2-0.2,0.4-0.4,0.3l-6.3-4.6l-6.3,4.6
			c-0.2,0.2-0.5,0-0.4-0.3l2.4-7.5l-6.3-4.6c-0.2-0.2-0.1-0.5,0.2-0.5h7.8l2.4-7.5C1047.5,38.7,1047.9,38.7,1047.9,39L1047.9,39z"/>
		<g class="st6">
			<circle class="st7" cx="698" cy="55.8" r="6"/>
		</g>
		<g class="st6">
			<circle class="st7" cx="844" cy="123.8" r="4"/>
		</g>
		<g class="st8">
			<circle class="st7" cx="714" cy="163.8" r="2"/>
		</g>
		<circle class="st9" cx="1.5" cy="148.3" r="1.5"/>
		<circle class="st10" cx="130" cy="187.8" r="5"/>
		<circle class="st11" cx="187" cy="110.8" r="7"/>
		<circle class="st11" cx="234" cy="123.8" r="2"/>
		<circle class="st11" cx="1210.5" cy="162.3" r="3.5"/>
		<circle class="st12" cx="1116.5" cy="124.3" r="6.5"/>
		<circle class="st13" cx="1120" cy="66.8" r="1"/>
		<circle class="st14" cx="1035" cy="97.8" r="2"/>
		<circle class="st15" cx="945" cy="191.8" r="2"/>
		<circle class="st16" cx="498.5" cy="151.3" r="5.5"/>
		<circle class="st17" cx="556.5" cy="151.3" r="2.5"/>
		<circle class="st18" cx="439" cy="52.8" r="3"/>
		<circle class="st19" cx="517.5" cy="57.3" r="1.5"/>
		<circle class="st1" cx="481" cy="23.8" r="1"/>
		<circle class="st11" cx="909.5" cy="42.3" r="2.5"/>
		<circle class="st20" cx="855.5" cy="7.3" r="1.5"/>
		<circle class="st21" cx="157" cy="88.8" r="1"/>
		<circle class="st22" cx="96.5" cy="103.3" r="2.5"/>
		<circle class="st23" cx="315.5" cy="56.3" r="8.5"/>
		<circle class="st24" cx="709" cy="18.8" r="1"/>
		<circle class="st14" cx="779.5" cy="29.3" r="1.5"/>
		<polygon class="st3" points="1028.7,154.8 1030,156.1 1031.6,155.2 1032.6,156.8 1034.3,156.3 1034.8,158.1 1036.7,158.1 
			1036.7,160 1038.5,160.4 1038,162.2 1039.6,163.2 1038.7,164.8 1040,166.1 1038.7,167.4 1039.6,169 1038,169.9 1038.5,171.8 
			1036.7,172.2 1036.7,174.1 1034.8,174.1 1034.3,175.9 1032.6,175.4 1031.6,177 1030,176.1 1028.7,177.4 1027.4,176.1 1025.8,177 
			1024.8,175.4 1023,175.9 1022.6,174.1 1020.7,174.1 1020.7,172.2 1018.9,171.8 1019.4,169.9 1017.8,169 1018.7,167.4 
			1017.4,166.1 1018.7,164.8 1017.8,163.2 1019.4,162.2 1018.9,160.4 1020.7,160 1020.7,158.1 1022.6,158.1 1023,156.3 
			1024.8,156.8 1025.8,155.2 1027.4,156.1 		"/>
	</g>
</g>
</svg>
